<?xml version="1.0" standalone="no"?>
<!DOCTYPE svg PUBLIC "-//W3C//DTD SVG 20010904//EN"
 "http://www.w3.org/TR/2001/REC-SVG-20010904/DTD/svg10.dtd">
<svg version="1.0" xmlns="http://www.w3.org/2000/svg"
 width="1024.000000pt" height="1024.000000pt" viewBox="0 0 1024.000000 1024.000000"
 preserveAspectRatio="xMidYMid meet">
<metadata>
Created by potrace 1.11, written by Peter Selinger 2001-2013
</metadata>
<g transform="translate(0.000000,1024.000000) scale(0.100000,-0.100000)"
fill="#000000" stroke="none">
<path d="M3870 10230 c-109 -26 -222 -103 -287 -196 -12 -17 -67 -121 -122
-231 l-100 -200 -63 -2 c-35 -1 -85 -1 -113 -1 -27 0 -70 0 -95 -1 -25 0 -51
0 -57 0 -7 0 -33 0 -58 0 -50 0 -69 1 -87 2 -7 1 -38 1 -68 0 -30 0 -73 -1
-94 -1 -22 -1 -43 -3 -48 -6 -4 -3 -8 -2 -8 3 0 4 -24 7 -52 5 -29 -1 -59 -3
-65 -3 -91 0 -124 0 -145 2 -7 1 -38 1 -68 0 -30 0 -73 -1 -94 -1 -22 -1 -43
-3 -48 -6 -4 -3 -8 -2 -8 3 0 7 -46 8 -125 3 -17 -1 -34 -1 -40 0 -5 1 -59 1
-120 0 -60 0 -116 -1 -122 -1 -7 0 -42 0 -78 0 -36 0 -72 0 -80 0 -8 0 -44 0
-80 0 -36 0 -72 0 -80 0 -8 0 -43 1 -77 1 -35 0 -93 -1 -131 -2 -37 -2 -67 -1
-67 2 0 3 -27 3 -60 0 -34 -3 -63 -4 -65 -1 -8 8 -129 2 -177 -8 -103 -23
-194 -106 -228 -208 -20 -59 -21 -79 -18 -445 2 -225 7 -389 13 -398 5 -8 10
-20 11 -27 3 -20 45 -76 81 -109 50 -45 113 -74 171 -78 27 -2 54 -6 59 -9 5
-3 15 -2 23 3 8 5 21 5 31 -1 11 -6 20 -5 24 1 4 6 15 6 30 0 17 -6 25 -6 25
1 0 6 5 7 11 4 13 -9 177 -10 185 -2 4 4 15 2 25 -4 11 -5 19 -6 19 -2 0 4 11
8 25 8 14 0 25 -4 25 -8 0 -5 5 -5 11 -2 16 11 69 12 69 3 0 -5 8 -4 18 1 11
6 24 6 35 0 9 -6 17 -6 17 -2 0 4 11 8 25 8 14 0 25 -4 25 -8 0 -4 8 -3 18 2
11 6 24 6 35 0 9 -6 17 -6 17 -2 0 4 11 8 25 8 14 0 25 -4 25 -8 0 -5 5 -5 11
-2 16 11 69 12 69 3 0 -5 8 -4 18 1 11 6 24 6 35 0 9 -6 17 -6 17 -2 0 10 93
8 109 -2 6 -3 11 -2 11 4 0 6 11 7 28 2 15 -5 36 -5 47 -1 11 4 30 4 43 -1 12
-5 22 -5 22 1 0 5 12 5 28 1 15 -4 39 -4 55 0 15 4 27 3 27 -2 0 -5 10 -5 24
1 15 5 27 5 34 -2 6 -6 12 -6 16 1 5 7 15 7 31 1 15 -6 25 -6 25 0 0 5 12 5
28 1 15 -4 39 -4 55 0 15 4 27 3 27 -2 0 -5 10 -5 24 1 15 5 27 5 34 -2 6 -6
12 -6 16 1 5 7 15 7 31 1 15 -6 25 -6 25 0 0 5 12 5 28 1 15 -4 39 -4 55 0 15
4 27 3 27 -2 0 -5 10 -5 24 1 15 5 27 5 34 -2 6 -6 12 -6 16 1 5 7 15 7 31 1
15 -6 25 -6 25 0 0 5 12 5 28 1 15 -4 39 -4 55 0 15 4 27 3 27 -2 0 -5 10 -5
24 1 15 5 27 5 34 -2 6 -6 12 -6 16 1 5 7 15 7 31 1 17 -6 25 -6 25 1 0 6 5 7
10 4 14 -9 118 -10 126 -2 4 3 15 2 25 -4 11 -5 19 -6 19 -2 0 4 11 8 25 8 14
0 25 -4 25 -8 0 -5 5 -5 11 -2 16 11 69 12 69 3 0 -5 8 -4 18 1 11 6 24 6 35
0 9 -6 17 -6 17 -2 0 4 11 8 25 8 14 0 25 -4 25 -8 0 -4 8 -3 18 2 11 6 24 6
35 0 9 -6 17 -6 17 -2 0 4 11 8 25 8 14 0 25 -4 25 -8 0 -5 5 -5 11 -2 16 11
69 12 69 3 0 -5 8 -4 18 1 11 6 24 6 35 0 9 -6 17 -6 17 -2 0 10 103 8 119 -1
6 -4 11 -3 11 3 0 6 11 7 28 2 15 -4 39 -4 54 0 16 4 30 3 34 -2 3 -5 12 -5
22 0 11 6 24 6 34 0 10 -6 19 -6 23 0 3 6 15 7 28 2 12 -5 34 -5 49 0 16 4 28
4 28 -1 0 -6 10 -6 25 0 15 6 26 6 30 0 4 -6 13 -7 23 -1 11 6 24 6 34 0 10
-6 19 -6 23 0 3 7 15 7 30 1 15 -6 27 -6 30 0 3 6 15 6 30 0 15 -6 25 -6 25 0
0 5 12 5 28 1 15 -5 37 -5 49 0 13 5 25 4 28 -1 4 -6 13 -7 23 -1 11 6 24 6
34 0 10 -6 19 -6 23 0 4 7 15 7 30 1 15 -6 25 -6 25 0 0 5 12 5 28 1 15 -5 37
-5 49 0 13 5 25 4 28 -1 4 -6 13 -7 23 -1 11 6 24 6 34 0 10 -6 19 -6 23 0 4
7 15 7 30 1 17 -6 25 -6 25 1 0 6 5 7 11 3 13 -7 169 -8 176 0 3 3 16 1 29 -4
14 -6 24 -6 24 0 0 5 12 5 28 1 15 -5 37 -5 49 0 13 5 25 4 28 -1 4 -6 13 -7
23 -1 11 6 24 6 34 0 10 -6 19 -6 23 0 4 7 15 7 30 1 15 -6 25 -6 25 0 0 5 12
5 28 1 15 -5 37 -5 49 0 13 5 25 4 28 -1 4 -6 13 -7 23 -1 11 6 24 6 34 0 10
-6 19 -6 23 0 4 7 15 7 30 1 15 -6 25 -6 25 0 0 5 12 5 28 1 15 -5 36 -5 47
-1 11 4 28 4 37 -1 9 -5 19 -6 21 -2 6 9 59 9 73 0 6 -3 16 -2 24 3 8 5 21 5
31 -1 11 -6 20 -5 24 1 3 5 15 6 28 1 12 -5 34 -5 49 0 16 4 28 4 28 -1 0 -6
10 -6 25 0 15 6 26 6 30 0 4 -6 13 -7 23 -1 11 6 24 6 34 0 10 -6 19 -6 23 0
3 6 15 7 28 2 12 -5 34 -5 49 0 16 4 28 4 28 -1 0 -6 10 -6 25 0 13 5 27 5 30
1 3 -5 20 -6 38 -1 18 4 43 3 55 -1 12 -5 22 -4 22 1 0 5 12 5 28 1 15 -5 37
-5 49 0 13 5 25 4 28 -1 4 -6 13 -7 23 -1 11 6 24 6 34 0 10 -6 19 -6 23 0 4
7 15 7 30 1 15 -6 25 -6 25 0 0 5 12 5 28 1 15 -5 37 -5 49 0 13 5 25 4 28 -1
4 -6 13 -7 23 -1 11 6 24 6 34 0 10 -6 19 -6 23 0 4 7 15 7 30 1 15 -6 25 -6
25 0 0 5 12 5 28 1 15 -5 36 -5 47 -1 11 4 28 4 37 -1 9 -5 19 -6 21 -2 6 9
59 9 73 0 6 -3 16 -2 24 3 8 5 21 5 31 -1 11 -6 20 -5 24 1 3 5 15 6 28 1 12
-5 34 -5 49 0 16 4 28 4 28 -1 0 -6 10 -6 25 0 15 6 26 6 30 0 4 -6 13 -7 23
-1 11 6 24 6 34 0 10 -6 19 -6 23 0 3 6 15 7 28 2 12 -5 34 -5 49 0 16 4 28 4
28 -1 0 -6 10 -6 25 0 13 5 27 6 29 1 3 -4 25 -5 50 -1 24 4 52 3 60 -2 10 -6
16 -5 16 1 0 6 11 7 28 2 15 -4 39 -4 54 0 16 4 30 3 34 -2 3 -5 12 -5 22 0
11 6 24 6 34 0 10 -6 19 -6 23 0 3 6 15 7 28 2 12 -5 34 -5 49 0 16 4 28 4 28
-1 0 -6 10 -6 25 0 15 6 26 6 30 0 4 -6 13 -7 23 -1 11 6 24 6 34 0 10 -6 19
-6 23 0 3 7 15 7 30 1 15 -6 27 -6 30 0 3 6 15 6 30 0 15 -6 25 -6 25 0 0 5
12 5 28 1 15 -5 37 -5 49 0 13 5 25 4 28 -1 4 -6 13 -7 23 -1 11 6 24 6 34 0
10 -6 19 -6 23 0 4 7 15 7 30 1 15 -6 25 -6 25 0 0 5 12 5 28 1 15 -5 37 -5
49 0 13 5 25 4 28 -1 4 -6 13 -7 23 -1 11 6 24 6 34 0 10 -6 19 -6 23 0 4 7
15 7 30 1 17 -6 25 -6 25 1 0 6 5 7 11 4 13 -9 177 -10 185 -2 4 4 15 2 25 -4
11 -5 19 -6 19 -2 0 4 11 8 25 8 14 0 25 -4 25 -8 0 -5 5 -5 11 -2 16 11 69
12 69 3 0 -5 8 -4 18 1 11 6 24 6 35 0 9 -6 17 -6 17 -2 0 4 31 9 68 9 116 3
218 70 273 180 24 49 24 50 27 435 1 262 -1 396 -9 420 -22 67 -40 99 -82 142
-72 72 -153 100 -284 98 -71 -2 -70 -2 -155 -1 -35 0 -93 -1 -131 -2 -37 -2
-67 -1 -67 2 0 3 -27 3 -60 0 -34 -3 -63 -4 -65 -2 -8 8 -105 7 -105 -1 0 -5
-4 -6 -9 -2 -9 5 -234 10 -256 5 -5 -1 -13 -2 -17 -1 -10 3 -106 3 -115 0 -5
-1 -12 -1 -17 0 -7 2 -57 2 -106 0 -13 0 -56 0 -142 0 -28 1 -126 1 -140 0 -7
0 -71 0 -143 0 -71 1 -138 1 -147 1 -10 0 -47 -1 -83 -1 -36 0 -72 0 -80 0 -8
0 -44 0 -80 0 -36 0 -72 0 -80 0 -8 0 -45 0 -82 0 -91 0 -169 1 -221 4 l-44 2
-109 215 c-73 143 -123 230 -151 261 -45 48 -141 116 -174 124 -10 2 -41 11
-68 19 -43 14 -197 16 -1260 15 -666 -1 -1227 -5 -1246 -9z"/>
<path d="M1300 7679 c-14 -4 -22 -7 -19 -8 4 -1 3 -17 -1 -36 -4 -19 -4 -37 0
-40 5 -3 5 -18 0 -34 -4 -15 -4 -34 0 -41 4 -7 4 -25 0 -40 -4 -15 -4 -33 0
-40 4 -7 4 -25 0 -40 -4 -15 -4 -33 0 -40 4 -7 4 -25 0 -40 -4 -15 -4 -33 0
-40 4 -7 4 -25 0 -40 -4 -15 -4 -33 0 -40 4 -7 4 -25 0 -40 -4 -15 -4 -33 0
-40 4 -7 4 -25 0 -40 -4 -15 -4 -33 0 -40 4 -7 4 -25 0 -40 -4 -15 -4 -33 0
-40 4 -7 4 -25 0 -40 -4 -15 -4 -33 0 -40 4 -7 4 -25 0 -40 -4 -15 -4 -33 0
-40 4 -7 4 -25 0 -40 -4 -15 -4 -33 0 -40 4 -7 4 -25 0 -40 -4 -15 -4 -33 0
-40 4 -7 4 -25 0 -40 -4 -15 -4 -33 0 -40 4 -7 4 -25 0 -40 -4 -15 -4 -33 0
-41 5 -7 6 -17 3 -22 -7 -11 -6 -157 1 -164 2 -2 1 -17 -4 -32 -4 -16 -4 -34
0 -41 4 -6 4 -27 0 -46 -4 -19 -5 -34 -1 -34 5 0 5 -20 1 -43 -3 -24 -3 -52 0
-63 4 -10 4 -28 0 -39 -4 -11 -4 -31 0 -45 4 -14 3 -35 -1 -46 -4 -12 -5 -24
-3 -27 7 -7 9 -105 2 -112 -3 -3 -2 -24 2 -45 4 -22 4 -43 0 -45 -4 -3 -4 -20
0 -39 4 -19 4 -40 0 -47 -5 -7 -5 -22 0 -33 4 -12 4 -30 0 -41 -4 -11 -4 -31
0 -45 4 -14 4 -34 0 -45 -4 -11 -5 -24 -3 -28 7 -11 8 -106 1 -112 -3 -3 -2
-24 2 -45 4 -22 4 -43 0 -45 -4 -3 -4 -20 0 -39 4 -19 4 -40 0 -47 -5 -7 -5
-22 0 -33 4 -12 4 -30 0 -41 -4 -11 -4 -31 0 -45 4 -14 4 -34 0 -45 -4 -11 -5
-24 -3 -28 7 -11 8 -106 1 -112 -3 -3 -2 -24 2 -45 4 -22 4 -43 0 -45 -4 -3
-4 -20 0 -39 4 -19 4 -40 0 -47 -5 -7 -5 -22 0 -33 4 -12 4 -30 0 -41 -4 -11
-4 -31 0 -45 4 -14 4 -34 0 -45 -4 -11 -5 -24 -3 -28 7 -11 8 -106 1 -112 -3
-3 -2 -24 2 -45 4 -22 3 -43 -1 -46 -5 -3 -7 -9 -4 -14 8 -12 10 -128 3 -135
-3 -3 -2 -24 2 -45 4 -22 4 -43 0 -45 -4 -3 -4 -21 0 -40 4 -19 4 -37 0 -40
-5 -3 -5 -18 -1 -33 4 -15 6 -36 5 -47 -1 -11 -3 -32 -3 -47 -1 -16 -1 -40 -2
-55 0 -16 0 -35 0 -43 1 -8 1 -26 0 -40 0 -14 0 -32 0 -40 1 -8 1 -26 0 -40 0
-14 0 -32 0 -40 1 -8 1 -26 0 -40 0 -14 0 -32 0 -40 1 -8 1 -26 0 -40 0 -14 0
-32 0 -40 1 -8 1 -26 0 -40 0 -14 0 -32 0 -40 1 -8 1 -26 0 -40 0 -14 0 -32 0
-40 1 -8 1 -26 0 -40 0 -14 0 -32 0 -40 1 -8 1 -26 0 -40 0 -14 0 -32 0 -40 1
-8 1 -26 0 -40 0 -14 0 -32 0 -40 1 -8 1 -26 0 -40 0 -14 0 -32 0 -40 1 -8 1
-26 0 -40 0 -14 0 -32 0 -40 1 -8 1 -26 0 -40 0 -14 0 -32 0 -40 1 -8 1 -26 0
-40 0 -14 0 -31 0 -37 1 -17 1 -32 1 -103 0 -33 1 -66 1 -72 0 -15 0 -113 -1
-143 0 -11 0 -33 1 -50 1 -16 0 -37 0 -45 -1 -8 -1 -26 0 -40 0 -14 0 -31 0
-37 -1 -7 -1 -21 -1 -30 0 -10 0 -31 -1 -48 0 -45 0 -46 3 -108 2 -31 0 -57
-3 -57 -4 0 -3 -15 1 -34 4 -19 4 -39 0 -46 -4 -7 -4 -27 0 -45 4 -18 4 -39 0
-45 -4 -7 -4 -25 0 -40 4 -15 4 -33 0 -40 -5 -7 -4 -23 0 -36 5 -12 6 -24 4
-27 -6 -5 -6 -33 -2 -115 2 -28 0 -52 -3 -52 -4 0 -3 -15 1 -34 4 -19 4 -39 0
-46 -4 -7 -4 -27 0 -45 4 -18 4 -39 0 -45 -4 -7 -4 -25 0 -40 4 -15 4 -33 0
-40 -4 -7 -4 -25 0 -40 4 -15 4 -33 0 -40 -5 -7 -4 -23 0 -36 5 -12 7 -24 4
-26 -7 -8 -1 -225 7 -235 2 -4 4 -13 13 -63 19 -103 90 -260 162 -357 46 -60
163 -183 175 -183 4 0 14 -6 22 -14 38 -39 192 -122 260 -141 4 -2 8 -3 10 -5
3 -3 25 -8 117 -30 84 -19 131 -19 3056 -20 2638 0 2981 2 3055 15 85 16 112
22 117 25 1 2 6 3 11 4 5 0 13 4 17 8 4 5 13 8 21 8 23 0 145 62 213 109 83
56 189 160 238 231 20 30 40 57 43 60 14 12 96 200 104 240 1 3 7 30 14 61 6
31 14 86 16 123 3 37 7 72 10 77 4 5 2 9 -3 9 -5 0 -6 20 -2 45 4 25 5 47 2
50 -3 3 -4 31 -3 62 1 32 2 64 1 71 0 6 0 19 0 27 -1 22 -1 102 0 123 0 9 0
31 -1 47 -1 17 0 37 0 45 1 8 1 26 0 40 0 14 0 31 0 38 1 6 1 20 1 30 0 9 0
31 1 47 0 45 0 46 -3 108 -2 31 0 57 3 57 4 0 3 15 -1 34 -4 19 -4 39 0 46 4
7 4 27 0 45 -4 18 -4 39 0 45 4 7 4 25 0 40 -4 15 -4 33 0 40 5 7 4 23 0 36
-5 12 -6 24 -4 27 6 5 6 33 2 115 -2 28 0 52 3 52 4 0 3 15 -1 34 -4 19 -4 39
0 46 4 7 4 27 0 46 -4 19 -4 34 0 34 4 0 4 18 0 40 -4 22 -4 40 0 40 4 0 4 16
0 35 -4 19 -4 37 0 40 5 3 5 18 1 33 -5 15 -5 36 -1 47 4 11 4 31 0 45 -4 14
-4 34 0 45 4 11 4 32 0 46 -4 15 -4 32 0 39 4 7 4 24 0 39 -4 14 -4 35 0 46 4
11 5 24 3 28 -7 12 -9 117 -2 117 4 0 3 18 -1 40 -4 22 -4 43 1 45 4 3 4 18 0
33 -5 15 -5 36 -1 47 4 11 4 32 0 46 -4 15 -4 32 0 39 4 7 4 24 0 39 -4 14 -4
35 0 46 4 11 5 24 3 28 -7 12 -9 117 -2 117 4 0 3 18 -1 40 -4 22 -4 43 1 45
4 3 4 18 1 33 -4 15 -5 47 -2 72 3 25 2 64 -1 88 -3 23 -3 42 2 42 4 0 3 15
-1 34 -4 19 -4 39 0 46 4 7 4 27 0 45 -4 18 -4 39 0 45 4 7 4 25 0 40 -4 15
-4 33 0 40 5 7 4 23 0 36 -5 12 -6 24 -4 27 6 5 6 33 2 115 -2 28 0 52 3 52 4
0 3 15 -1 34 -4 19 -4 39 0 46 4 7 4 27 0 45 -4 18 -4 39 0 45 4 7 4 25 0 40
-4 15 -4 33 0 40 5 7 4 23 0 36 -5 12 -6 24 -4 27 6 5 6 33 2 115 -2 28 0 52
3 52 4 0 3 15 -1 34 -4 19 -4 39 0 46 4 7 4 27 0 46 -4 19 -4 34 0 34 4 0 4
18 0 40 -4 22 -4 40 0 40 4 0 4 16 0 35 -4 19 -4 37 0 40 5 3 5 18 1 33 -5 15
-5 36 -1 47 4 11 4 31 0 45 -4 14 -4 34 0 45 4 11 4 32 0 46 -4 15 -4 32 0 39
4 7 4 24 0 39 -4 14 -4 35 0 46 4 11 5 24 3 28 -7 12 -9 117 -2 117 4 0 3 18
-1 40 -4 22 -4 43 1 45 4 3 4 18 0 33 -5 15 -5 36 -1 47 4 11 4 32 0 46 -4 15
-4 32 0 39 4 7 4 24 0 39 -4 14 -4 35 0 46 4 11 5 24 3 28 -7 12 -9 117 -2
117 4 0 3 18 -1 40 -4 22 -4 43 1 45 4 3 4 18 1 33 -4 15 -5 47 -2 72 3 25 2
64 -1 88 -3 23 -3 42 2 42 4 0 3 15 -1 34 -4 19 -4 39 0 46 4 7 4 27 0 45 -4
18 -4 39 0 45 4 7 4 25 0 40 -4 15 -4 33 0 40 5 7 4 23 0 36 -5 12 -6 24 -4
27 6 5 6 33 2 115 -2 28 0 52 3 52 4 0 3 15 -1 34 -4 19 -4 39 0 46 4 7 4 27
0 45 -4 18 -4 39 0 45 4 7 4 25 0 40 -4 15 -4 33 0 40 5 7 4 23 0 36 -5 12 -6
24 -4 27 6 5 6 33 2 115 -2 28 0 52 3 52 4 0 3 15 -1 34 -4 19 -4 39 0 46 4 7
4 27 0 46 -4 19 -4 34 0 34 4 0 4 18 0 40 -4 22 -4 40 1 40 4 0 4 14 -1 30 -5
17 -6 30 -2 30 4 0 -1 7 -12 15 -13 10 -24 11 -37 4 -13 -6 -19 -6 -19 0 0 7
-9 7 -25 1 -14 -5 -25 -6 -25 -1 0 5 -16 5 -35 1 -19 -4 -35 -5 -35 -1 0 3
-25 6 -55 6 -30 0 -55 -4 -55 -8 0 -4 -8 -3 -18 2 -13 7 -22 7 -29 0 -7 -7
-13 -7 -17 -1 -4 7 -17 7 -36 2 -17 -5 -30 -6 -30 -2 0 4 -25 7 -55 7 -30 0
-55 -4 -55 -8 0 -4 -8 -3 -18 2 -13 7 -22 7 -29 0 -7 -7 -13 -7 -17 -1 -4 7
-17 7 -36 2 -17 -5 -30 -6 -30 -2 0 4 -25 7 -55 7 -30 0 -55 -4 -55 -8 0 -4
-8 -3 -18 2 -13 7 -22 7 -29 0 -7 -7 -13 -7 -17 -1 -4 7 -17 7 -36 2 -17 -5
-30 -6 -30 -2 0 4 -25 7 -55 7 -30 0 -55 -4 -55 -8 0 -4 -9 -3 -19 3 -14 7
-22 7 -26 0 -4 -6 -11 -7 -17 -4 -15 10 -78 11 -78 2 0 -4 -11 -3 -25 2 -15 6
-26 6 -30 0 -4 -6 -13 -7 -23 -2 -17 9 -70 7 -79 -2 -3 -3 -15 -1 -28 4 -14 5
-26 5 -33 -2 -6 -6 -12 -6 -16 1 -5 8 -13 8 -27 1 -12 -7 -19 -7 -19 -1 0 7
-8 7 -22 2 -13 -5 -32 -5 -43 -1 -11 4 -25 3 -32 -2 -7 -5 -14 -5 -18 2 -4 7
-12 7 -26 0 -12 -7 -19 -7 -19 -1 0 7 -8 7 -22 2 -13 -5 -32 -5 -43 -1 -11 4
-25 3 -32 -2 -7 -5 -14 -5 -18 2 -4 7 -12 7 -26 0 -12 -7 -19 -7 -19 -1 0 7
-8 7 -22 2 -13 -5 -32 -5 -43 -1 -11 4 -25 3 -32 -2 -7 -5 -14 -5 -18 2 -4 7
-12 7 -26 0 -12 -7 -19 -7 -19 -1 0 7 -8 7 -22 2 -13 -5 -32 -5 -43 -1 -11 4
-25 3 -32 -2 -7 -5 -14 -5 -18 2 -4 7 -12 7 -26 0 -12 -7 -19 -7 -19 -1 0 7
-8 7 -22 2 -13 -5 -32 -5 -43 -1 -11 4 -25 3 -32 -2 -7 -5 -14 -5 -18 2 -4 7
-12 7 -26 0 -12 -7 -19 -7 -19 -1 0 7 -8 7 -22 2 -13 -5 -32 -5 -43 -1 -11 4
-25 3 -32 -2 -7 -5 -14 -5 -18 2 -4 7 -12 7 -26 0 -12 -7 -19 -7 -19 -1 0 7
-8 7 -22 2 -13 -5 -32 -5 -43 -1 -11 4 -25 3 -32 -2 -7 -5 -14 -5 -18 2 -4 7
-12 7 -26 0 -12 -7 -19 -7 -19 -1 0 7 -8 7 -22 2 -13 -5 -32 -5 -43 -1 -11 4
-25 3 -32 -2 -7 -5 -14 -5 -18 2 -4 7 -12 7 -26 0 -12 -7 -19 -7 -19 -1 0 7
-8 7 -22 2 -13 -5 -32 -5 -43 -1 -11 4 -25 3 -32 -2 -7 -5 -14 -5 -18 2 -4 7
-12 7 -26 0 -12 -7 -19 -7 -19 -1 0 7 -8 7 -22 2 -13 -5 -32 -5 -43 -1 -11 4
-25 3 -32 -2 -7 -5 -14 -5 -18 2 -4 7 -12 7 -26 0 -12 -7 -19 -7 -19 -1 0 7
-8 7 -22 2 -13 -5 -32 -5 -43 -1 -11 4 -25 3 -32 -2 -7 -5 -14 -5 -18 2 -4 7
-12 7 -26 0 -12 -7 -19 -7 -19 -1 0 7 -8 7 -22 2 -13 -5 -32 -5 -43 -1 -11 4
-25 3 -32 -2 -7 -5 -14 -5 -18 2 -4 7 -12 7 -26 0 -12 -7 -19 -7 -19 -1 0 7
-8 7 -22 2 -13 -5 -32 -5 -43 -1 -11 4 -25 3 -32 -2 -7 -5 -14 -5 -18 2 -4 7
-12 7 -26 0 -12 -7 -19 -7 -19 -1 0 7 -8 7 -22 2 -13 -5 -32 -5 -43 -1 -11 4
-25 3 -32 -2 -7 -5 -14 -5 -18 2 -4 7 -12 7 -26 0 -12 -7 -19 -7 -19 -1 0 7
-8 7 -22 2 -13 -5 -32 -5 -43 -1 -11 4 -25 3 -32 -2 -7 -5 -14 -5 -18 2 -3 5
-14 7 -23 2 -15 -6 -48 -8 -62 -2 -17 6 -60 4 -60 -3 0 -4 -8 -3 -18 2 -10 5
-24 6 -32 1 -8 -5 -21 -5 -30 0 -9 5 -23 4 -32 -1 -11 -6 -19 -6 -23 1 -4 7
-12 7 -24 0 -10 -5 -21 -6 -25 -3 -9 10 -56 10 -56 0 0 -4 -8 -3 -18 2 -10 5
-24 6 -32 1 -8 -5 -21 -5 -30 0 -9 5 -23 4 -32 -1 -11 -6 -19 -6 -23 1 -4 7
-12 7 -24 0 -10 -5 -21 -6 -25 -3 -9 10 -56 10 -56 0 0 -4 -8 -3 -18 2 -10 5
-24 6 -32 1 -8 -5 -21 -5 -30 0 -9 5 -23 4 -32 -1 -11 -6 -19 -6 -23 1 -4 7
-12 7 -24 0 -10 -5 -21 -6 -25 -3 -9 10 -56 10 -56 0 0 -4 -8 -3 -18 2 -10 5
-24 6 -32 1 -8 -5 -21 -5 -30 0 -9 5 -23 4 -32 -1 -11 -6 -19 -6 -23 1 -4 7
-12 7 -24 0 -10 -5 -21 -6 -25 -3 -9 10 -56 10 -56 0 0 -4 -8 -3 -18 2 -10 5
-24 6 -32 1 -8 -5 -21 -5 -30 0 -9 5 -23 4 -32 -1 -11 -6 -19 -6 -23 1 -4 7
-12 7 -24 0 -10 -5 -21 -6 -25 -3 -9 10 -56 10 -56 0 0 -4 -8 -3 -18 2 -10 5
-24 6 -32 1 -8 -5 -21 -5 -30 0 -9 5 -23 4 -32 -1 -11 -6 -19 -6 -23 1 -4 7
-12 7 -24 0 -10 -5 -21 -6 -25 -3 -9 10 -56 10 -56 0 0 -4 -8 -3 -18 2 -10 5
-24 6 -32 1 -8 -5 -21 -5 -30 0 -9 5 -23 4 -32 -1 -11 -6 -19 -6 -23 1 -4 7
-12 7 -24 0 -10 -5 -21 -6 -25 -3 -9 10 -56 10 -56 0 0 -4 -8 -3 -18 2 -10 5
-24 6 -32 1 -8 -5 -21 -5 -30 0 -9 5 -23 4 -32 -1 -11 -6 -19 -6 -23 1 -4 7
-12 7 -24 0 -10 -5 -21 -6 -25 -3 -9 10 -56 10 -56 0 0 -4 -8 -3 -18 2 -10 5
-24 6 -32 1 -8 -5 -21 -5 -30 0 -9 5 -23 4 -32 -1 -11 -6 -19 -6 -23 1 -4 7
-12 7 -24 0 -10 -5 -21 -6 -25 -3 -9 10 -56 10 -56 0 0 -4 -8 -3 -18 2 -10 5
-24 6 -32 1 -8 -5 -21 -5 -30 0 -9 5 -23 4 -32 -1 -11 -6 -19 -6 -23 1 -4 7
-12 7 -25 0 -12 -6 -21 -7 -25 0 -3 5 -15 6 -28 1 -12 -5 -32 -5 -44 0 -14 5
-23 5 -23 -1 0 -5 -6 -7 -13 -4 -23 9 -98 10 -103 2 -3 -5 -13 -4 -22 1 -11 6
-24 6 -35 0 -9 -6 -17 -6 -17 -2 0 4 -11 8 -25 8 -14 0 -25 -3 -25 -7 0 -4 -6
-5 -13 -2 -23 9 -98 10 -103 2 -3 -5 -13 -4 -22 1 -11 6 -24 6 -35 0 -9 -6
-17 -6 -17 -2 0 4 -11 8 -25 8 -14 0 -25 -3 -25 -7 0 -4 -6 -5 -13 -2 -23 9
-98 10 -103 2 -3 -5 -13 -4 -22 1 -11 6 -24 6 -35 0 -9 -6 -17 -6 -17 -2 0 4
-11 8 -25 8 -14 0 -25 -3 -25 -7 0 -4 -6 -5 -13 -2 -23 9 -98 10 -103 2 -3 -5
-13 -4 -22 1 -11 6 -24 6 -35 0 -9 -6 -17 -6 -17 -2 0 4 -11 8 -25 8 -14 0
-25 -3 -25 -7 0 -4 -6 -5 -13 -2 -23 9 -98 10 -103 2 -3 -5 -13 -4 -22 1 -11
6 -24 6 -35 0 -9 -6 -17 -6 -17 -2 0 4 -11 8 -25 8 -14 0 -25 -3 -25 -7 0 -4
-12 -3 -27 1 -16 4 -39 4 -53 0z m2033 -1309 c44 -21 100 -68 139 -118 10 -12
15 -22 12 -22 -4 0 -1 -7 6 -15 7 -8 9 -15 5 -15 -4 0 -2 -7 5 -14 6 -8 14
-47 16 -87 3 -40 7 -75 9 -79 2 -3 0 -12 -4 -19 -5 -7 -5 -28 -1 -47 4 -19 4
-34 0 -34 -4 0 -4 -18 0 -40 4 -22 4 -40 0 -40 -4 0 -5 -15 -1 -32 4 -18 6
-42 5 -53 -3 -27 -5 -67 -3 -85 0 -8 0 -26 0 -40 -1 -14 -1 -32 0 -40 0 -8 0
-26 0 -40 -1 -14 -1 -34 -1 -45 0 -11 0 -53 0 -94 -1 -40 1 -75 4 -78 2 -2 1
-17 -4 -32 -4 -16 -4 -34 0 -41 4 -6 4 -27 0 -46 -4 -19 -5 -34 -1 -34 7 0 6
-129 -2 -136 -2 -2 -1 -23 3 -44 4 -22 4 -43 0 -45 -4 -3 -4 -21 0 -40 4 -19
4 -37 0 -40 -5 -3 -5 -18 -1 -33 4 -15 6 -36 5 -47 -3 -26 -5 -66 -3 -85 0 -8
0 -26 0 -40 -1 -14 -1 -32 0 -40 1 -14 0 -35 -2 -97 -1 -37 -1 -62 0 -93 1
-14 1 -41 1 -60 0 -19 1 -77 3 -128 1 -50 -1 -92 -4 -92 -4 0 -3 -15 1 -34 4
-19 4 -39 0 -46 -4 -7 -4 -27 0 -46 4 -19 4 -34 0 -34 -4 0 -4 -18 0 -40 4
-22 4 -40 0 -40 -4 0 -5 -15 -1 -32 4 -18 4 -44 1 -58 -4 -14 -3 -37 1 -52 4
-14 5 -28 3 -31 -3 -2 -4 -29 -4 -58 0 -30 0 -63 0 -74 0 -22 1 -58 3 -128 1
-26 -1 -47 -4 -47 -4 0 -3 -18 1 -40 4 -22 4 -43 -1 -45 -4 -3 -4 -18 1 -34 4
-15 4 -34 0 -41 -4 -6 -4 -26 0 -44 4 -17 4 -40 0 -51 -4 -11 -4 -32 1 -47 4
-14 5 -28 3 -31 -3 -2 -4 -29 -4 -58 0 -30 0 -63 0 -74 0 -22 1 -58 3 -128 1
-26 -1 -47 -4 -47 -4 0 -3 -18 1 -40 4 -22 4 -43 -1 -45 -4 -3 -4 -18 1 -34 4
-15 4 -34 0 -41 -4 -6 -4 -26 0 -44 4 -17 5 -40 4 -51 -4 -21 -5 -49 -3 -75 0
-8 0 -26 0 -40 -1 -14 -1 -32 0 -40 0 -8 0 -26 0 -40 -1 -14 -1 -34 -1 -45 0
-11 0 -53 0 -94 -1 -40 1 -75 4 -78 2 -2 1 -17 -4 -32 -4 -16 -4 -34 0 -41 4
-6 4 -27 0 -46 -4 -19 -5 -34 -1 -34 7 0 6 -129 -2 -136 -2 -2 -1 -23 3 -44 4
-22 4 -43 0 -45 -4 -3 -4 -21 0 -40 4 -19 4 -37 0 -40 -5 -3 -5 -18 0 -34 4
-16 7 -31 5 -33 -1 -2 -5 -21 -8 -43 -12 -85 -43 -145 -105 -202 -38 -36 -102
-69 -147 -76 -17 -3 -34 -6 -40 -7 -5 -1 -12 -2 -15 -1 -3 2 -25 4 -49 6 -25
3 -52 7 -60 11 -9 4 -21 8 -28 10 -21 4 -77 46 -109 81 -59 65 -77 116 -78
220 -1 51 -3 93 -6 93 -4 0 -3 376 1 390 1 3 1 9 0 14 -1 5 -1 55 -1 112 1 57
1 112 1 122 0 9 0 96 0 192 0 96 0 181 0 188 -1 6 -1 18 -2 25 0 6 0 80 1 162
0 83 0 155 -1 160 -1 6 -1 13 -1 16 1 4 1 58 2 120 1 357 1 466 1 479 -1 15 0
51 3 242 0 54 -3 98 -7 98 -5 0 -6 4 -3 8 3 5 5 42 6 83 1 82 2 507 1 527 -1
6 -1 18 -2 25 0 6 0 80 1 162 0 83 0 155 -1 160 -1 6 -1 13 -1 16 1 4 1 58 2
120 1 357 1 466 1 479 -1 15 0 51 3 242 0 54 -3 98 -7 98 -5 0 -6 4 -3 8 3 5
6 47 6 93 2 112 28 190 83 250 43 47 99 83 152 98 52 15 166 5 218 -19z m1882
15 c89 -32 155 -90 194 -169 18 -36 24 -67 25 -117 1 -38 3 -69 6 -69 3 0 5
-16 5 -35 0 -19 -3 -35 -7 -35 -4 0 -5 -7 -2 -15 8 -20 10 -145 3 -145 -4 0
-3 -18 1 -40 4 -22 4 -40 -1 -40 -5 0 -6 -7 -3 -15 8 -20 10 -145 3 -145 -4 0
-3 -16 1 -35 4 -20 4 -38 -1 -41 -5 -3 -5 -13 1 -25 8 -13 7 -25 0 -39 -8 -14
-8 -20 0 -20 8 0 8 -6 0 -20 -8 -14 -8 -20 0 -20 8 0 8 -6 0 -20 -8 -14 -8
-20 0 -20 8 0 8 -6 0 -20 -8 -14 -8 -20 0 -20 8 0 8 -6 0 -20 -8 -14 -8 -20 0
-20 8 0 8 -6 0 -20 -8 -14 -8 -20 0 -20 8 0 8 -6 0 -20 -8 -14 -8 -20 0 -20 8
0 8 -6 0 -20 -8 -14 -8 -20 0 -20 8 0 8 -6 0 -20 -8 -14 -8 -20 0 -20 8 0 8
-6 0 -20 -8 -14 -8 -20 0 -20 8 0 8 -6 0 -20 -8 -14 -8 -20 0 -20 8 0 8 -6 0
-20 -8 -14 -8 -20 0 -20 8 0 8 -6 0 -20 -8 -14 -8 -20 0 -20 8 0 8 -6 0 -20
-8 -14 -8 -20 0 -20 8 0 8 -6 0 -20 -8 -14 -8 -20 0 -20 6 0 8 -5 5 -11 -9
-13 -12 -79 -5 -79 3 0 5 -16 5 -35 0 -19 -3 -35 -7 -35 -4 0 -5 -7 -2 -15 8
-20 10 -145 3 -145 -4 0 -3 -18 1 -40 4 -22 4 -40 -1 -40 -5 0 -6 -7 -3 -15 8
-20 10 -145 3 -145 -4 0 -3 -16 1 -35 4 -20 4 -38 -1 -41 -5 -3 -5 -13 1 -25
8 -13 7 -25 0 -39 -8 -14 -8 -20 0 -20 8 0 8 -6 0 -20 -8 -14 -8 -20 0 -20 8
0 8 -6 0 -20 -8 -14 -8 -20 0 -20 8 0 8 -6 0 -20 -8 -14 -8 -20 0 -20 8 0 8
-6 0 -20 -8 -14 -8 -20 0 -20 8 0 8 -6 0 -20 -8 -14 -8 -20 0 -20 8 0 8 -6 0
-20 -8 -14 -8 -20 0 -20 6 0 8 -5 5 -11 -9 -13 -12 -79 -5 -79 7 0 5 -59 -3
-66 -3 -4 -2 -15 3 -25 7 -12 7 -20 0 -24 -7 -5 -8 -11 -1 -19 6 -7 6 -17 1
-26 -5 -8 -5 -21 0 -30 5 -9 5 -22 0 -30 -5 -8 -6 -18 -3 -24 9 -14 9 -66 0
-66 -4 0 -3 -9 3 -19 6 -13 7 -22 0 -26 -6 -4 -6 -15 0 -30 6 -15 6 -25 0 -25
-5 0 -5 -12 0 -30 5 -17 5 -30 0 -30 -5 0 -5 -13 0 -30 5 -18 5 -32 -1 -35 -5
-4 -4 -15 3 -28 6 -12 10 -24 9 -27 -2 -3 -7 -13 -12 -22 -7 -12 -6 -18 1 -18
8 0 8 -6 0 -20 -8 -14 -8 -20 0 -20 8 0 8 -6 0 -20 -8 -14 -8 -20 0 -20 8 0 8
-6 0 -20 -8 -14 -8 -20 0 -20 8 0 8 -6 0 -20 -8 -14 -8 -20 0 -20 8 0 8 -6 0
-20 -8 -14 -8 -20 0 -20 8 0 8 -6 0 -20 -8 -14 -8 -20 0 -20 6 0 8 -5 5 -11
-9 -13 -12 -79 -5 -79 3 0 5 -16 5 -35 0 -19 -3 -35 -7 -35 -4 0 -5 -7 -2 -15
8 -20 10 -145 3 -145 -4 0 -3 -18 1 -40 4 -22 4 -40 -1 -40 -5 0 -6 -7 -3 -15
8 -20 10 -145 3 -145 -4 0 -3 -16 1 -35 4 -20 4 -38 -1 -41 -5 -3 -5 -13 1
-25 8 -13 7 -25 0 -39 -8 -14 -8 -20 0 -20 8 0 8 -6 0 -20 -8 -14 -8 -20 0
-20 8 0 8 -6 0 -20 -8 -14 -8 -20 0 -20 8 0 8 -6 0 -20 -8 -14 -8 -20 0 -20 8
0 8 -6 0 -20 -8 -14 -8 -20 0 -20 8 0 8 -6 0 -20 -8 -14 -8 -20 0 -20 8 0 8
-6 0 -20 -8 -14 -8 -20 0 -20 6 0 8 -5 5 -11 -9 -13 -12 -79 -5 -79 7 0 5 -54
-3 -66 -3 -6 -2 -16 3 -24 5 -9 5 -19 -1 -26 -7 -8 -6 -14 1 -19 6 -4 7 -12 1
-24 -6 -10 -6 -23 -1 -31 5 -8 5 -21 -1 -31 -6 -11 -5 -20 1 -24 5 -3 6 -13 3
-21 -3 -9 -7 -30 -8 -48 -2 -17 -4 -31 -5 -31 -1 0 -3 -10 -6 -23 -5 -26 -48
-97 -78 -127 -62 -64 -150 -96 -248 -91 -151 8 -274 123 -294 276 -3 18 -7 36
-9 38 -2 3 0 13 6 23 7 13 6 19 -1 19 -8 0 -8 6 0 20 8 14 8 20 0 20 -8 0 -8
6 0 20 8 14 8 20 0 20 -8 0 -8 6 0 20 8 14 8 20 0 20 -8 0 -8 6 0 20 8 14 8
20 0 20 -8 0 -8 6 0 20 8 14 8 20 0 20 -8 0 -8 6 0 20 8 14 8 20 0 20 -6 0 -8
5 -5 11 9 13 12 79 5 79 -7 0 -5 59 3 66 3 4 2 15 -3 25 -7 12 -7 20 0 24 7 5
8 11 1 19 -6 7 -6 17 -1 26 5 8 5 21 0 30 -5 9 -5 22 0 30 5 8 6 18 3 24 -9
14 -9 66 0 66 4 0 3 9 -3 19 -6 13 -7 22 0 26 6 4 6 15 0 30 -6 15 -6 25 0 25
5 0 5 12 0 30 -5 17 -5 30 0 30 5 0 5 13 0 30 -5 18 -5 32 1 35 5 4 4 15 -3
28 -6 12 -10 24 -9 27 2 3 7 13 12 23 7 11 6 17 -1 17 -8 0 -8 6 0 20 8 14 8
20 0 20 -8 0 -8 6 0 20 8 14 8 20 0 20 -8 0 -8 6 0 20 8 14 8 20 0 20 -8 0 -8
6 0 20 8 14 8 20 0 20 -8 0 -8 6 0 20 8 14 8 20 0 20 -8 0 -8 6 0 20 8 14 8
20 0 20 -6 0 -8 5 -5 11 9 13 12 79 5 79 -3 0 -5 16 -5 35 0 19 3 35 7 35 4 0
5 7 2 15 -8 20 -10 145 -3 145 4 0 3 18 -1 40 -4 22 -4 40 1 40 5 0 6 7 3 15
-8 20 -10 145 -3 145 4 0 3 16 -1 35 -4 20 -4 38 1 41 5 3 5 13 -1 25 -8 13
-7 25 0 39 8 14 8 20 0 20 -8 0 -8 6 0 20 8 14 8 20 0 20 -8 0 -8 6 0 20 8 14
8 20 0 20 -8 0 -8 6 0 20 8 14 8 20 0 20 -8 0 -8 6 0 20 8 14 8 20 0 20 -8 0
-8 6 0 20 8 14 8 20 0 20 -8 0 -8 6 0 20 8 14 8 20 0 20 -6 0 -8 5 -5 11 9 13
12 79 5 79 -7 0 -5 59 3 66 3 4 2 15 -3 25 -7 12 -7 20 0 24 7 5 8 11 1 19 -6
7 -6 17 -1 26 5 8 5 21 0 30 -5 9 -5 22 0 30 5 8 6 18 3 24 -9 14 -9 66 0 66
4 0 3 9 -3 19 -6 13 -7 22 0 26 6 4 6 15 0 30 -6 15 -6 25 0 25 5 0 5 12 0 30
-5 17 -5 30 0 30 5 0 5 13 0 30 -5 18 -5 32 1 35 5 4 4 15 -3 28 -6 12 -10 24
-9 27 2 3 7 13 12 23 7 11 6 17 -1 17 -8 0 -8 6 0 20 8 14 8 20 0 20 -8 0 -8
6 0 20 8 14 8 20 0 20 -8 0 -8 6 0 20 8 14 8 20 0 20 -8 0 -8 6 0 20 8 14 8
20 0 20 -8 0 -8 6 0 20 8 14 8 20 0 20 -8 0 -8 6 0 20 8 14 8 20 0 20 -6 0 -8
5 -5 11 9 13 12 79 5 79 -3 0 -5 16 -5 35 0 19 3 35 7 35 4 0 5 7 2 15 -8 20
-10 145 -3 145 4 0 3 18 -1 40 -4 22 -4 40 1 40 5 0 6 7 3 15 -8 20 -10 145
-3 145 4 0 3 16 -1 35 -4 20 -4 38 1 41 5 3 5 13 -1 25 -8 13 -7 25 0 39 8 14
8 20 0 20 -8 0 -8 6 0 20 8 14 8 20 0 20 -8 0 -8 6 0 20 8 14 8 20 0 20 -8 0
-8 6 0 20 8 14 8 20 0 20 -8 0 -8 6 0 20 8 14 8 20 0 20 -8 0 -8 6 0 20 8 14
8 20 0 20 -8 0 -8 6 0 20 8 14 8 20 0 20 -6 0 -8 5 -5 11 9 13 12 79 5 79 -7
0 -5 54 3 66 3 6 2 16 -3 24 -5 9 -5 19 1 26 7 8 6 14 -1 19 -6 4 -7 12 -1 24
6 10 6 23 1 31 -5 8 -5 21 1 31 6 12 5 20 -1 24 -6 4 -7 11 -4 17 4 6 8 30 10
54 6 101 100 217 203 253 56 19 160 23 206 6z m1920 0 c86 -30 154 -89 195
-170 22 -45 25 -64 27 -185 2 -74 3 -137 4 -140 1 -3 1 -8 1 -11 -1 -4 -1 -58
-2 -120 -2 -479 -2 -470 1 -501 1 -7 1 -42 0 -78 0 -36 0 -72 0 -80 1 -8 1
-44 0 -80 0 -36 0 -72 0 -80 0 -8 0 -82 -1 -165 0 -82 0 -154 1 -160 1 -5 1
-13 1 -16 -1 -4 -1 -58 -2 -120 -1 -357 -1 -466 -1 -479 1 -15 0 -51 -3 -242
0 -54 3 -98 7 -98 5 0 6 -4 3 -8 -3 -5 -5 -42 -6 -83 -1 -82 -2 -507 -1 -526
1 -7 1 -19 2 -25 0 -7 0 -80 -1 -163 0 -82 0 -154 1 -160 1 -5 1 -13 1 -16 -1
-4 -1 -58 -2 -120 -1 -357 -1 -466 -1 -479 1 -8 0 -44 0 -80 -1 -36 -1 -74 -1
-85 0 -21 1 -306 0 -340 0 -36 -40 -146 -54 -152 -8 -3 -14 -11 -14 -17 0 -22
-112 -103 -152 -110 -13 -3 -24 -5 -25 -5 -2 -1 -6 -1 -10 -2 -5 -1 -16 -5
-25 -10 -10 -5 -18 -6 -18 -2 0 4 -24 9 -54 10 -62 2 -126 29 -177 75 -38 35
-80 90 -83 111 -1 7 -5 18 -10 25 -4 7 -10 45 -12 84 -3 39 -7 74 -9 78 -2 3
0 12 4 19 5 7 5 28 1 47 -4 19 -4 34 0 34 4 0 4 18 0 40 -4 22 -4 40 0 40 4 0
5 15 1 33 -4 17 -6 41 -5 52 3 27 5 67 3 85 0 8 0 26 0 40 1 14 1 32 0 40 0 8
0 26 0 40 1 14 1 34 1 45 0 11 0 53 0 94 1 40 -1 75 -4 78 -2 2 -1 17 4 32 4
16 4 34 0 41 -4 6 -4 27 0 46 4 19 5 34 1 34 -7 0 -6 129 2 136 2 2 1 23 -3
44 -4 22 -4 43 0 45 4 3 4 21 0 40 -4 19 -4 37 0 40 5 3 5 18 1 33 -4 15 -6
36 -5 47 3 26 5 66 3 85 0 8 0 26 0 40 1 14 1 32 0 40 -1 14 0 35 2 98 1 36 1
61 0 92 -1 14 -1 41 -1 60 0 19 -1 77 -3 128 -1 50 1 92 4 92 4 0 3 15 -1 34
-4 19 -4 39 0 46 4 7 4 27 0 46 -4 19 -4 34 0 34 4 0 4 18 0 40 -4 22 -4 40 0
40 4 0 5 15 1 33 -4 17 -4 43 -1 57 4 14 3 37 -1 52 -4 14 -5 28 -3 31 3 2 4
29 4 58 0 30 0 63 0 74 0 22 -1 58 -3 128 -1 26 1 47 4 47 4 0 3 18 -1 40 -4
22 -4 43 1 45 4 3 4 18 -1 34 -4 15 -4 34 0 41 4 6 4 26 0 44 -4 17 -4 40 0
51 4 11 4 32 -1 47 -4 14 -5 28 -3 31 3 2 4 29 4 58 0 30 0 63 0 74 0 22 -1
58 -3 128 -1 26 1 47 4 47 4 0 3 18 -1 40 -4 22 -4 43 1 45 4 3 4 18 -1 34 -4
15 -4 34 0 41 4 6 4 26 0 44 -4 17 -4 40 0 51 4 11 4 32 -1 47 -4 14 -5 28 -3
31 3 2 4 29 4 58 0 30 0 63 0 74 0 22 -1 58 -3 128 -1 26 1 47 4 47 4 0 3 18
-1 40 -4 22 -4 43 1 45 4 3 4 18 -1 34 -4 15 -4 34 0 41 4 6 4 26 0 44 -4 17
-4 40 0 51 4 11 4 32 -1 47 -4 14 -5 28 -3 31 3 2 4 29 4 58 -1 60 -1 83 1
102 1 6 0 26 -1 42 -11 134 83 280 209 324 56 19 158 22 206 6z"/>
</g>
</svg>
